<svg xmlns="http://www.w3.org/2000/svg"
 xmlns:xlink="http://www.w3.org/1999/xlink"
 width="57px" height="57px"  viewBox="0 0 57 57" fill="none">
<path fill-rule="evenodd"  fill="#fb3640"
 d="M44.827515,32.655273 C38.66681,32.655273 33.65509,37.666748 33.65509,43.827393 C33.65509,49.98828 38.66681,55.000244 44.827515,55.000244 C50.98822,55.000244 55.99994,49.98828 55.99994,43.827393 C55.99994,37.666748 50.98822,32.655273 44.827515,32.655273 ZM44.827515,53.137695 C39.693848,53.137695 35.517212,48.96118 35.517212,43.827393 C35.517212,38.693848 39.693848,34.517334 44.827515,34.517334 C49.961243,34.517334 54.13788,38.693848 54.13788,43.827393 C54.13788,48.96118 49.961243,53.137695 44.827515,53.137695 ZM50.413696,42.896484 C50.413696,42.896484 45.758606,42.896484 45.758606,42.896484 C45.758606,42.896484 45.758606,38.241455 45.758606,38.241455 C45.758606,37.72632 45.342407,37.310303 44.827515,37.310303 C44.312622,37.310303 43.896545,37.72632 43.896545,38.241455 C43.896545,38.241455 43.896545,43.827393 43.896545,43.827393 C43.896545,44.34253 44.312622,44.75879 44.827515,44.75879 C44.827515,44.75879 50.413696,44.75879 50.413696,44.75879 C50.92859,44.75879 51.34485,44.34253 51.34485,43.827393 C51.34485,43.312744 50.92859,42.896484 50.413696,42.896484 ZM27.137817,20.551514 C27.137817,20.551514 25.275757,20.551514 25.275757,20.551514 C25.275757,20.551514 18.758545,20.551514 18.758545,20.551514 C18.758545,20.551514 16.896484,20.551514 16.896484,20.551514 C16.896484,20.551514 8.517151,20.551514 8.517151,20.551514 C8.517151,20.551514 8.517151,28.930908 8.517151,28.930908 C8.517151,28.930908 8.517151,30.793213 8.517151,30.793213 C8.517151,30.793213 8.517151,37.310303 8.517151,37.310303 C8.517151,37.310303 8.517151,39.172607 8.517151,39.172607 C8.517151,39.172607 8.517151,47.552002 8.517151,47.552002 C8.517151,47.552002 16.896484,47.552002 16.896484,47.552002 C16.896484,47.552002 18.758545,47.552002 18.758545,47.552002 C18.758545,47.552002 27.137817,47.552002 27.137817,47.552002 C27.137817,47.552002 27.137817,39.172607 27.137817,39.172607 C27.137817,39.172607 27.137817,37.310303 27.137817,37.310303 C27.137817,37.310303 27.137817,30.793213 27.137817,30.793213 C27.137817,30.793213 33.65509,30.793213 33.65509,30.793213 C33.65509,30.793213 35.517212,30.793213 35.517212,30.793213 C35.517212,30.793213 43.896545,30.793213 43.896545,30.793213 C43.896545,30.793213 43.896545,20.551514 43.896545,20.551514 C43.896545,20.551514 35.517212,20.551514 35.517212,20.551514 C35.517212,20.551514 33.65509,20.551514 33.65509,20.551514 C33.65509,20.551514 27.137817,20.551514 27.137817,20.551514 ZM35.517212,22.413818 C35.517212,22.413818 42.034485,22.413818 42.034485,22.413818 C42.034485,22.413818 42.034485,28.930908 42.034485,28.930908 C42.034485,28.930908 35.517212,28.930908 35.517212,28.930908 C35.517212,28.930908 35.517212,22.413818 35.517212,22.413818 ZM18.758545,22.413818 C18.758545,22.413818 25.275757,22.413818 25.275757,22.413818 C25.275757,22.413818 25.275757,28.930908 25.275757,28.930908 C25.275757,28.930908 18.758545,28.930908 18.758545,28.930908 C18.758545,28.930908 18.758545,22.413818 18.758545,22.413818 ZM10.379211,22.413818 C10.379211,22.413818 16.896484,22.413818 16.896484,22.413818 C16.896484,22.413818 16.896484,28.930908 16.896484,28.930908 C16.896484,28.930908 10.379211,28.930908 10.379211,28.930908 C10.379211,28.930908 10.379211,22.413818 10.379211,22.413818 ZM10.379211,30.793213 C10.379211,30.793213 16.896484,30.793213 16.896484,30.793213 C16.896484,30.793213 16.896484,37.310303 16.896484,37.310303 C16.896484,37.310303 10.379211,37.310303 10.379211,37.310303 C10.379211,37.310303 10.379211,30.793213 10.379211,30.793213 ZM16.896484,45.689453 C16.896484,45.689453 10.379211,45.689453 10.379211,45.689453 C10.379211,45.689453 10.379211,39.172607 10.379211,39.172607 C10.379211,39.172607 16.896484,39.172607 16.896484,39.172607 C16.896484,39.172607 16.896484,45.689453 16.896484,45.689453 ZM25.275757,45.689453 C25.275757,45.689453 18.758545,45.689453 18.758545,45.689453 C18.758545,45.689453 18.758545,39.172607 18.758545,39.172607 C18.758545,39.172607 25.275757,39.172607 25.275757,39.172607 C25.275757,39.172607 25.275757,45.689453 25.275757,45.689453 ZM25.275757,37.310303 C25.275757,37.310303 18.758545,37.310303 18.758545,37.310303 C18.758545,37.310303 18.758545,30.793213 18.758545,30.793213 C18.758545,30.793213 25.275757,30.793213 25.275757,30.793213 C25.275757,30.793213 25.275757,37.310303 25.275757,37.310303 ZM33.65509,28.930908 C33.65509,28.930908 27.137817,28.930908 27.137817,28.930908 C27.137817,28.930908 27.137817,22.413818 27.137817,22.413818 C27.137817,22.413818 33.65509,22.413818 33.65509,22.413818 C33.65509,22.413818 33.65509,28.930908 33.65509,28.930908 ZM32.72412,52.206787 C32.72412,52.206787 3.8619995,52.206787 3.8619995,52.206787 C3.8619995,52.206787 3.8619995,15.896484 3.8619995,15.896484 C3.8619995,15.896484 48.551636,15.896484 48.551636,15.896484 C48.551636,15.896484 48.551636,28.0 48.551636,28.0 C48.551636,28.514893 48.967896,28.930908 49.482727,28.930908 C49.997498,28.930908 50.413696,28.514893 50.413696,28.0 C50.413696,28.0 50.413696,14.965576 50.413696,14.965576 C50.413696,14.965576 50.413696,5.6552734 50.413696,5.6552734 C50.413696,5.140381 49.997498,4.724121 49.482727,4.724121 C49.482727,4.724121 44.827515,4.724121 44.827515,4.724121 C44.827515,4.724121 44.827515,1.9309082 44.827515,1.9309082 C44.827515,1.4160156 44.411316,1.0 43.896545,1.0 C43.896545,1.0 37.379272,1.0 37.379272,1.0 C36.86438,1.0 36.448242,1.4160156 36.448242,1.9309082 C36.448242,1.9309082 36.448242,4.724121 36.448242,4.724121 C36.448242,4.724121 15.965393,4.724121 15.965393,4.724121 C15.965393,4.724121 15.965393,1.9309082 15.965393,1.9309082 C15.965393,1.4160156 15.549316,1.0 15.034424,1.0 C15.034424,1.0 8.517151,1.0 8.517151,1.0 C8.002258,1.0 7.5861816,1.4160156 7.5861816,1.9309082 C7.5861816,1.9309082 7.5861816,4.724121 7.5861816,4.724121 C7.5861816,4.724121 2.9309082,4.724121 2.9309082,4.724121 C2.4160767,4.724121 1.999939,5.140381 1.999939,5.6552734 C1.999939,5.6552734 1.999939,14.965576 1.999939,14.965576 C1.999939,14.965576 1.999939,53.137695 1.999939,53.137695 C1.999939,53.652832 2.4160767,54.068848 2.9309082,54.068848 C2.9309082,54.068848 32.72412,54.068848 32.72412,54.068848 C33.23889,54.068848 33.65509,53.652832 33.65509,53.137695 C33.65509,52.62329 33.23889,52.206787 32.72412,52.206787 ZM38.310364,2.8620605 C38.310364,2.8620605 42.965454,2.8620605 42.965454,2.8620605 C42.965454,2.8620605 42.965454,5.6552734 42.965454,5.6552734 C42.965454,5.6552734 42.965454,8.448242 42.965454,8.448242 C42.965454,8.448242 38.310364,8.448242 38.310364,8.448242 C38.310364,8.448242 38.310364,5.6552734 38.310364,5.6552734 C38.310364,5.6552734 38.310364,2.8620605 38.310364,2.8620605 ZM9.448242,2.8620605 C9.448242,2.8620605 14.1033325,2.8620605 14.1033325,2.8620605 C14.1033325,2.8620605 14.1033325,5.6552734 14.1033325,5.6552734 C14.1033325,5.6552734 14.1033325,8.448242 14.1033325,8.448242 C14.1033325,8.448242 9.448242,8.448242 9.448242,8.448242 C9.448242,8.448242 9.448242,5.6552734 9.448242,5.6552734 C9.448242,5.6552734 9.448242,2.8620605 9.448242,2.8620605 ZM3.8619995,6.5861816 C3.8619995,6.5861816 7.5861816,6.5861816 7.5861816,6.5861816 C7.5861816,6.5861816 7.5861816,9.37915 7.5861816,9.37915 C7.5861816,9.894287 8.002258,10.310303 8.517151,10.310303 C8.517151,10.310303 15.034424,10.310303 15.034424,10.310303 C15.549316,10.310303 15.965393,9.894287 15.965393,9.37915 C15.965393,9.37915 15.965393,6.5861816 15.965393,6.5861816 C15.965393,6.5861816 36.448242,6.5861816 36.448242,6.5861816 C36.448242,6.5861816 36.448242,9.37915 36.448242,9.37915 C36.448242,9.894287 36.86438,10.310303 37.379272,10.310303 C37.379272,10.310303 43.896545,10.310303 43.896545,10.310303 C44.411316,10.310303 44.827515,9.894287 44.827515,9.37915 C44.827515,9.37915 44.827515,6.5861816 44.827515,6.5861816 C44.827515,6.5861816 48.551636,6.5861816 48.551636,6.5861816 C48.551636,6.5861816 48.551636,14.034668 48.551636,14.034668 C48.551636,14.034668 3.8619995,14.034668 3.8619995,14.034668 C3.8619995,14.034668 3.8619995,6.5861816 3.8619995,6.5861816 Z"/>
</svg>
