<svg xmlns="http://www.w3.org/2000/svg" width="35" height="40" fill="none"><path fill-rule="evenodd" fill="#fff" d="M17.5 2C8.953 2 2 8.94 2 17.473c0 2.915 1.744 6.744 5.184 11.38 2.73 3.682 5.912 7.053 8.1 9.233a3.13 3.13 0 0 0 4.432 0c2.188-2.18 5.37-5.55 8.1-9.233C31.256 24.217 33 20.388 33 17.473 33 8.94 26.047 2 17.5 2zm1.384 35.255c-.763.76-2.005.76-2.768 0-3.9-3.875-12.94-13.56-12.94-19.782C3.177 9.59 9.602 3.175 17.5 3.175S31.823 9.59 31.823 17.473c0 6.22-9.048 15.906-12.94 19.782zM28.29 17.23C28.16 11.45 23.42 6.768 17.627 6.7a10.75 10.75 0 0 0-6.871 2.368.58.58 0 0 0-.044.863c.218.218.552.237.783.052 1.503-1.204 3.375-1.967 5.417-2.09v.936c0 .322.248.602.57.612a.59.59 0 0 0 .607-.587v-.96c4.833.293 8.713 4.167 9.007 8.992h-.938c-.322 0-.603.248-.613.57a.59.59 0 0 0 .588.605h.963c-.294 4.825-4.174 8.7-9.007 8.99v-.936c0-.322-.248-.602-.57-.612a.59.59 0 0 0-.607.588v.96c-4.833-.293-8.713-4.167-9.007-8.992h.938c.322 0 .603-.248.613-.57a.59.59 0 0 0-.588-.605h-.962a9.53 9.53 0 0 1 1.748-4.949.58.58 0 0 0-.067-.742c-.265-.264-.69-.225-.9.07a10.7 10.7 0 0 0-1.976 6.398c.1 5.76 4.78 10.455 10.55 10.58 6.14.134 11.165-4.882 11.03-11.013zm-5.092-5.444a.59.59 0 0 0-.627-.133l-7.214 2.77c-.02.008-.034.015-.05.022-.026.013-.043.023-.06.033-.036.023-.067.05-.097.078a.58.58 0 0 0-.077.095c-.012.017-.02.035-.03.052a.78.78 0 0 0-.025.055c-.001.003-2.776 7.205-2.776 7.205-.083.217-.03.462.133.626a.59.59 0 0 0 .416.172c.07 0 .143-.013.21-.04l7.214-2.77a.96.96 0 0 0 .049-.022c.026-.013.043-.023.06-.034a.61.61 0 0 0 .096-.077c.044-.044.08-.094.107-.147.01-.023.018-.038.024-.054l2.776-7.205c.084-.217.032-.462-.133-.627zm-9.38 9.364l1.974-5.124 3.16 3.153-5.133 1.97zm5.965-2.802l-3.16-3.153 5.133-1.97-1.974 5.124z"/></svg>