<svg xmlns="http://www.w3.org/2000/svg"
 xmlns:xlink="http://www.w3.org/1999/xlink"
 width="63px" height="63px"  viewBox="0 0 63 63" fill="none">
<path fill-rule="evenodd"  fill="#fb3640"
 d="M22.712524,22.423096 C22.712524,22.423096 22.712524,22.423096 22.712524,22.423096 C22.712524,22.423096 22.71106,22.419922 22.71106,22.419922 C22.71106,22.419922 22.712524,22.423096 22.712524,22.423096 ZM14.461792,38.702637 C14.461792,38.702637 14.461792,38.7041 14.461792,38.7041 C14.461792,38.7041 14.472778,38.651367 14.472778,38.651367 C14.472778,38.651367 14.461792,38.702637 14.461792,38.702637 ZM26.586548,28.072266 C26.586548,28.072266 26.588135,28.06543 26.588135,28.06543 C26.588135,28.06543 26.598389,28.016602 26.598389,28.016602 C26.598389,28.016602 26.586548,28.072266 26.586548,28.072266 ZM29.686768,46.25 C29.686768,46.25 29.688232,46.24536 29.688232,46.24536 C29.688232,46.24536 29.689209,46.242676 29.689209,46.242676 C29.689209,46.242676 29.686768,46.25 29.686768,46.25 ZM43.84204,25.473877 C41.224976,25.473877 39.105225,27.594238 39.105225,30.210693 C39.105225,32.82715 41.225098,34.94751 43.84204,34.94751 C46.458496,34.94751 48.5791,32.82715 48.5791,30.210693 C48.5791,27.594238 46.458496,25.473877 43.84204,25.473877 ZM43.84204,32.5791 C42.536377,32.5791 41.473633,31.516602 41.473633,30.210693 C41.473633,28.90503 42.536377,27.842041 43.84204,27.842041 C45.14795,27.842041 46.21057,28.90503 46.21057,30.210693 C46.21057,31.516602 45.14795,32.5791 43.84204,32.5791 ZM32.0,1.0002441 C27.477783,1.0002441 23.198853,2.0141602 19.354004,3.807129 C17.509888,2.072754 15.013672,1.0002441 12.263184,1.0002441 C6.604004,1.0002441 2.0,5.515869 2.0,11.065918 C2.0,13.15332 3.2780762,15.783691 4.8554688,18.242432 C3.0317383,22.115234 2.0,26.435059 2.0,31.0 C2.0,47.56787 15.4296875,61.000244 32.0,61.000244 C48.57019,61.000244 62.0,47.56787 62.0,31.000244 C62.0,14.432373 48.570312,1.0002441 32.0,1.0002441 ZM4.368408,11.065918 C4.368408,6.8129883 7.904419,3.3686523 12.263184,3.3686523 C16.62268,3.3686523 20.157837,6.8129883 20.157837,11.065918 C20.157837,15.316162 12.263184,23.89502 12.263184,23.89502 C12.263184,23.89502 4.368408,15.316162 4.368408,11.065918 ZM4.368164,30.999268 C4.368286,27.29712 5.1064453,23.76538 6.434326,20.535645 C8.168823,22.894531 9.894531,24.81836 10.52063,25.498047 C10.52063,25.498047 12.263062,27.39209 12.263062,27.39209 C12.263062,27.39209 14.005371,25.498047 14.005371,25.498047 C15.428711,23.952637 22.526123,15.9904785 22.526123,11.065918 C22.526123,9.09082 21.934937,7.251953 20.929077,5.696045 C22.831787,4.8598633 24.844849,4.230713 26.940918,3.8395996 C26.940918,3.8395996 26.29895,4.9938965 26.29895,4.9938965 C25.98877,5.555908 25.873413,6.1589355 25.870361,6.7543945 C25.876709,7.503662 26.051758,8.259033 26.5177,8.924072 C26.5177,8.924072 26.516113,8.922119 26.516113,8.922119 C26.516113,8.922119 28.316772,11.451904 28.316772,11.451904 C28.415527,11.586182 28.547363,11.863281 28.633423,12.170654 C28.721802,12.47876 28.771606,12.82251 28.770752,13.090088 C28.771606,13.211426 28.76062,13.318115 28.74707,13.394043 C28.74707,13.394043 28.748047,13.391602 28.748047,13.391602 C28.748047,13.391602 28.280518,15.938477 28.280518,15.938477 C28.255371,16.10791 28.106812,16.441162 27.887451,16.71753 C27.674316,16.99878 27.38855,17.224854 27.230713,17.292236 C27.230713,17.292236 24.064087,18.753418 24.064087,18.753418 C23.05127,19.22461 22.458252,20.22583 22.458252,21.270264 C22.458252,21.653076 22.53955,22.04956 22.71167,22.423096 C22.71167,22.423096 24.04834,25.332764 24.04834,25.332764 C24.117798,25.481201 24.197388,25.739502 24.250366,26.026855 C24.304077,26.314453 24.333252,26.633545 24.333252,26.919434 C24.333252,27.173096 24.308716,27.404541 24.27478,27.551025 C24.27478,27.551025 24.259033,27.615234 24.259033,27.615234 C24.259033,27.615234 23.89502,29.1958 23.89502,29.1958 C23.856445,29.385986 23.685791,29.743652 23.450562,30.04541 C23.220093,30.351807 22.918457,30.608154 22.745605,30.695312 C22.745605,30.695312 20.406372,31.93628 20.406372,31.93628 C20.286255,32.00415 20.013916,32.075684 19.725708,32.072998 C19.377563,32.07837 19.016113,31.968506 18.880981,31.873535 C18.880981,31.873535 16.967285,30.640625 16.967285,30.640625 C16.331787,30.239014 15.628296,30.088867 14.93042,30.084229 C14.28833,30.088379 13.636597,30.217041 13.036865,30.567627 C13.036865,30.567627 11.120483,31.70166 11.120483,31.70166 C10.751709,31.918701 10.440674,32.21875 10.223633,32.578613 C10.007324,32.93799 9.888916,33.35547 9.889648,33.774902 C9.886475,34.404785 10.154907,35.02466 10.6032715,35.48584 C10.6032715,35.48584 10.601807,35.483887 10.601807,35.483887 C10.601807,35.483887 11.674561,36.603516 11.674561,36.603516 C11.7717285,36.701416 11.915405,36.92798 12.010986,37.19409 C12.108154,37.458496 12.161743,37.760986 12.160156,37.98755 C12.161011,38.083252 12.151489,38.166748 12.138794,38.230957 C12.138794,38.230957 11.924927,39.255127 11.924927,39.255127 C11.877441,39.497803 11.708496,39.924316 11.484253,40.30713 C11.265625,40.692383 10.980469,41.052246 10.795166,41.214844 C10.795166,41.214844 9.824707,42.084717 9.824707,42.084717 C9.179077,42.666992 8.344482,43.537598 7.7492676,44.239502 C5.597412,40.303955 4.368164,35.793213 4.368164,30.999268 ZM24.220459,52.844727 C24.220459,52.844727 22.98108,57.111816 22.98108,57.111816 C17.257324,55.129395 12.379883,51.32202 9.056274,46.379883 C9.163696,46.247314 9.278931,46.103516 9.401367,45.95337 C9.868652,45.373047 10.832642,44.36206 11.4104,43.846436 C11.4104,43.846436 12.380005,42.97632 12.380005,42.97632 C12.840332,42.559326 13.216797,42.044678 13.540527,41.488525 C13.859375,40.9292 14.115967,40.345215 14.24707,39.73877 C14.24707,39.73877 14.4626465,38.702637 14.4626465,38.702637 C14.51062,38.465332 14.532227,38.22632 14.532227,37.986084 C14.53125,37.434326 14.424194,36.89258 14.237549,36.378662 C14.048218,35.86621 13.784668,35.38086 13.388062,34.963867 C13.388062,34.963867 12.315308,33.843506 12.315308,33.843506 C12.315308,33.843506 12.312866,33.84204 12.312866,33.84204 C12.312866,33.84204 12.270996,33.7854 12.270996,33.7854 C12.270996,33.7854 12.327881,33.73828 12.327881,33.73828 C12.327881,33.73828 14.245483,32.604004 14.245483,32.604004 C14.245483,32.604004 14.247925,32.60327 14.247925,32.60327 C14.362427,32.529785 14.640991,32.44873 14.932495,32.451904 C15.248291,32.447754 15.563232,32.5437 15.687866,32.631836 C15.687866,32.631836 17.600098,33.86328 17.600098,33.86328 C18.26184,34.28125 18.996704,34.434814 19.727661,34.440674 C20.333984,34.437256 20.944214,34.32837 21.518188,34.02832 C21.518188,34.02832 23.857544,32.787354 23.857544,32.787354 C24.452759,32.46582 24.927246,32.00708 25.33142,31.487549 C25.729248,30.96289 26.049805,30.384766 26.205322,29.72705 C26.205322,29.72705 26.587524,28.066162 26.587524,28.066162 C26.669678,27.692871 26.701904,27.311768 26.70288,26.920166 C26.701904,26.479248 26.660156,26.03125 26.57959,25.595947 C26.498291,25.159912 26.382324,24.740967 26.201538,24.344727 C26.201538,24.344727 24.863281,21.431396 24.863281,21.431396 C24.863281,21.431396 24.861694,21.428467 24.861694,21.428467 C24.861694,21.428467 24.828003,21.271484 24.828003,21.271484 C24.828003,21.118164 24.917114,20.966553 25.057617,20.905273 C25.057617,20.905273 28.225098,19.44336 28.225098,19.44336 C28.85498,19.146484 29.349976,18.692139 29.759033,18.170166 C30.163086,17.643555 30.479736,17.050781 30.609985,16.365967 C30.609985,16.365967 31.077515,13.819824 31.077515,13.819824 C31.077515,13.819824 31.078247,13.817627 31.078247,13.817627 C31.122559,13.574951 31.13977,13.332764 31.140747,13.091064 C31.13916,12.563232 31.057007,12.031494 30.911133,11.520996 C30.762695,11.010254 30.557983,10.5217285 30.246216,10.080078 C30.246216,10.080078 28.44629,7.5512695 28.44629,7.5512695 C28.44629,7.5512695 28.445435,7.550049 28.445435,7.550049 C28.346558,7.425293 28.233032,7.0856934 28.238525,6.757324 C28.236084,6.498535 28.303223,6.257324 28.368042,6.1484375 C28.368042,6.1484375 29.862549,3.4631348 29.862549,3.4631348 C30.569946,3.4060059 31.280396,3.368164 32.00061,3.368164 C45.73584,3.368164 57.158813,13.443359 59.276123,26.591309 C59.276123,26.591309 58.21826,26.003418 58.21826,26.003418 C57.78003,25.761475 57.30725,25.603516 56.812134,25.489258 C56.31714,25.376709 55.807983,25.314453 55.30896,25.313965 C55.037354,25.313965 54.769775,25.332031 54.501343,25.37915 C54.501343,25.37915 54.282593,25.417969 54.282593,25.417969 C52.283813,21.6958 48.35559,19.15747 43.842773,19.15747 C37.31311,19.15747 32.000732,24.46997 32.000732,30.999268 C32.000732,34.99048 35.918945,40.759277 38.9386,44.61255 C38.9386,44.61255 37.13147,46.64502 37.13147,46.64502 C37.023438,46.772705 36.747803,46.9729 36.43286,47.104248 C36.12097,47.241455 35.769653,47.315186 35.559692,47.31201 C35.559692,47.31201 35.48462,47.30957 35.48462,47.30957 C35.48462,47.30957 32.032104,47.043457 32.032104,47.043457 C32.032104,47.043457 31.945312,47.02466 31.945312,47.02466 C31.945312,47.02466 31.941406,47.022705 31.941406,47.022705 C31.941406,47.022705 31.941406,47.010986 31.941406,47.010986 C31.941406,47.010986 31.952393,46.939697 31.952393,46.939697 C31.952393,46.939697 31.955566,46.931152 31.955566,46.931152 C31.955566,46.931152 32.57141,44.879395 32.57141,44.879395 C32.65808,44.588135 32.695312,44.296143 32.695312,44.012695 C32.693848,43.45044 32.55249,42.91284 32.30237,42.427246 C32.051147,41.943848 31.68396,41.503662 31.18042,41.185303 C31.18042,41.185303 29.795776,40.320312 29.795776,40.320312 C29.32129,40.023926 28.79065,39.88916 28.274414,39.889893 C27.394897,39.8916 26.514648,40.27368 25.933594,41.04077 C25.933594,41.04077 21.735962,46.63745 21.735962,46.63745 C21.364868,47.131104 21.184814,47.71826 21.184814,48.291504 C21.184082,49.125732 21.564697,49.961914 22.288574,50.50586 C22.288574,50.50586 23.824097,51.656982 23.824097,51.656982 C23.908447,51.717773 24.030884,51.860596 24.114502,52.047607 C24.201416,52.23242 24.249634,52.454346 24.248047,52.624756 C24.248169,52.715088 24.235474,52.791016 24.220459,52.844727 ZM53.315918,31.000732 C53.315918,36.2312 43.842163,46.789307 43.842163,46.789307 C43.842163,46.789307 34.36853,36.230957 34.36853,31.000732 C34.36853,25.766357 38.609497,21.526855 43.842163,21.526855 C49.074097,21.526855 53.315918,25.766357 53.315918,31.000732 ZM32.0,58.63159 C29.672607,58.63159 27.411621,58.33838 25.250732,57.793945 C25.250732,57.793945 26.495728,53.503174 26.495728,53.503174 C26.580078,53.208252 26.616455,52.91382 26.616455,52.624756 C26.61499,52.074707 26.490234,51.545166 26.265015,51.055664 C26.038574,50.56836 25.71167,50.114502 25.24414,49.761963 C25.24414,49.761963 23.70935,48.610596 23.70935,48.610596 C23.608398,48.535645 23.554565,48.419434 23.553955,48.291992 C23.554688,48.20581 23.577515,48.129395 23.630493,48.058838 C23.630493,48.058838 27.82898,42.461914 27.82898,42.461914 C27.906372,42.350098 28.0896,42.256104 28.274292,42.25879 C28.380737,42.25879 28.47168,42.286133 28.540283,42.3291 C28.540283,42.3291 29.924316,43.19409 29.924316,43.19409 C30.005615,43.242676 30.118408,43.359375 30.19983,43.517822 C30.281982,43.67456 30.328491,43.865723 30.327026,44.012695 C30.327026,44.090088 30.31604,44.153564 30.30249,44.198975 C30.30249,44.198975 29.689087,46.245117 29.689087,46.245117 C29.610107,46.50122 29.57312,46.76001 29.57312,47.010986 C29.570679,47.620605 29.805176,48.22339 30.225952,48.658447 C30.64441,49.09839 31.233398,49.36035 31.85144,49.405518 C31.85144,49.405518 35.303955,49.67163 35.303955,49.67163 C35.390015,49.67798 35.47522,49.68091 35.560547,49.68091 C36.195312,49.67798 36.800903,49.523193 37.371704,49.28003 C37.940186,49.031982 38.46985,48.699707 38.902588,48.219727 C38.902588,48.219727 40.448364,46.479736 40.448364,46.479736 C41.170654,47.346924 41.753296,48.007324 42.0802,48.371338 C42.0802,48.371338 43.842285,50.335693 43.842285,50.335693 C43.842285,50.335693 45.604492,48.37036 45.604492,48.37036 C47.288452,46.494873 55.68457,36.841797 55.68457,31.000732 C55.68457,29.849365 55.511597,28.739258 55.203857,27.686035 C55.23938,27.685547 55.270996,27.682373 55.308838,27.682373 C55.601807,27.681396 55.95996,27.723145 56.286255,27.797852 C56.611694,27.870361 56.908447,27.98169 57.06787,28.072266 C57.06787,28.072266 59.58728,29.472168 59.58728,29.472168 C59.6156,29.979248 59.632324,30.487305 59.632324,31.0 C59.631714,46.23584 47.235962,58.63159 32.0,58.63159 ZM13.035645,30.567871 C13.035645,30.567871 13.036865,30.567139 13.036865,30.567139 C13.036865,30.567139 13.037109,30.567139 13.037109,30.567139 C13.037109,30.567139 13.035645,30.567871 13.035645,30.567871 ZM12.459595,6.525635 C10.278198,6.525635 8.513062,8.291504 8.513062,10.472656 C8.513062,12.65332 10.27832,14.420166 12.459717,14.420166 C14.640991,14.420166 16.407715,12.65332 16.407715,10.472656 C16.407837,8.29248 14.640869,6.525635 12.459595,6.525635 ZM12.459717,12.051514 C11.588867,12.05249 10.88147,11.343506 10.88147,10.472656 C10.88147,9.602295 11.588867,8.893799 12.459717,8.893799 C13.331299,8.893799 14.039429,9.602295 14.039429,10.472656 C14.039551,11.343506 13.331299,12.051514 12.459717,12.051514 Z"/>
</svg>
