<svg xmlns="http://www.w3.org/2000/svg" width="94" height="95"><path fill-rule="evenodd" fill="#fff" d="M92.19 49.217c.67-1.084.67-2.464 0-3.562l-2.773-4.5c-.46-.737-.605-1.634-.434-2.478l1.104-5.195c.263-1.26-.197-2.558-1.196-3.348l-4.114-3.254a3.37 3.37 0 0 1-1.236-2.182l-.723-5.262c-.17-1.272-1.052-2.33-2.248-2.732l-4.955-1.634c-.815-.268-1.498-.857-1.893-1.62l-2.432-4.7a3.28 3.28 0 0 0-2.905-1.781h-.118l-5.205.2h-.118a3.24 3.24 0 0 1-2.208-.87L56.87 2.74a3.29 3.29 0 0 0-2.208-.871 3.05 3.05 0 0 0-1.236.254l-4.824 2.01c-.394.16-.815.254-1.236.254s-.84-.08-1.235-.254l-4.824-2.01c-.407-.16-.828-.254-1.236-.254-.802 0-1.6.295-2.208.87L34 6.302a3.24 3.24 0 0 1-2.208.87h-.118l-5.205-.2h-.118a3.28 3.28 0 0 0-2.905 1.781l-2.432 4.7c-.394.777-1.078 1.353-1.893 1.62l-4.955 1.634c-1.196.388-2.077 1.46-2.248 2.732l-.723 5.262a3.37 3.37 0 0 1-1.236 2.182l-4.167 3.254c-1 .8-1.46 2.09-1.196 3.348L5.7 38.68a3.34 3.34 0 0 1-.434 2.478l-2.773 4.5c-.67 1.085-.67 2.464 0 3.562l2.773 4.5c.46.736.605 1.634.434 2.477L4.597 61.39c-.263 1.258.197 2.558 1.196 3.347l4.114 3.254a3.37 3.37 0 0 1 1.236 2.182l.723 5.262c.17 1.272 1.052 2.33 2.248 2.73l3.76 1.232 1.21.402c.815.268 1.498.857 1.893 1.62l2.432 4.7a3.28 3.28 0 0 0 2.905 1.781h.118l5.205-.2h.118a3.24 3.24 0 0 1 2.208.87l3.864 3.562a3.29 3.29 0 0 0 2.208.87c.42 0 .84-.08 1.236-.255l4.824-2.008c.394-.16.815-.254 1.236-.254s.84.08 1.236.254l4.824 2.008c.407.16.828.255 1.236.255.802 0 1.59-.294 2.208-.87l3.864-3.562a3.24 3.24 0 0 1 2.208-.87h.118l5.205.2h.118a3.28 3.28 0 0 0 2.905-1.781l2.432-4.7a3.26 3.26 0 0 1 1.893-1.621l1.21-.402 3.76-1.232c1.196-.388 2.077-1.46 2.248-2.73l.723-5.262a3.37 3.37 0 0 1 1.235-2.182l4.114-3.254c1-.8 1.46-2.09 1.196-3.347l-1.104-5.195a3.34 3.34 0 0 1 .434-2.477l2.8-4.5zM79.137 61.12c-.67 1.593-1.433 3.133-2.313 4.606a34.65 34.65 0 0 1-5.074 6.561c-3.168 3.227-6.86 5.758-10.962 7.525-4.26 1.835-8.78 2.758-13.433 2.758s-9.174-.923-13.433-2.758c-4.114-1.767-7.795-4.298-10.962-7.525a35.09 35.09 0 0 1-5.074-6.561 34.14 34.14 0 0 1-2.313-4.606c-1.8-4.34-2.708-8.945-2.708-13.685s.907-9.346 2.708-13.685a34.93 34.93 0 0 1 7.387-11.167 34.36 34.36 0 0 1 10.962-7.525c4.26-1.834 8.78-2.76 13.433-2.76s9.175.924 13.433 2.76c4.114 1.767 7.794 4.298 10.962 7.525s5.652 6.99 7.387 11.167c1.8 4.34 2.708 8.945 2.708 13.685s-.907 9.346-2.708 13.685zM47.342 16.305c-16.877 0-30.56 13.94-30.56 31.132 0 2.852.38 5.624 1.09 8.248 3.55 13.2 15.405 22.884 29.47 22.884s25.92-9.695 29.47-22.884c.7-2.624 1.09-5.396 1.09-8.248 0-17.193-13.683-31.132-30.56-31.132z"/></svg>