<svg xmlns="http://www.w3.org/2000/svg"
 xmlns:xlink="http://www.w3.org/1999/xlink"
 width="22px" height="25px"  viewBox="0 0 22 25">
<path fill-rule="evenodd"  fill="#ffffff"
 d="M11.406128,13.853218 C11.429199,13.853218 11.4522705,13.853218 11.480103,13.853218 C11.489258,13.853218 11.498535,13.853218 11.5078125,13.853218 C11.5217285,13.853218 11.540161,13.853218 11.554077,13.853218 C12.908447,13.830463 14.003906,13.360889 14.812866,12.463638 C16.592407,10.486237 16.29663,7.0965004 16.264282,6.7730293 C16.148804,4.3445587 14.983887,3.1825333 14.022461,2.640438 C13.305908,2.2350922 12.469238,2.0160408 11.535522,1.9981766 C11.535522,1.9981766 11.503296,1.9981766 11.503296,1.9981766 C11.498535,1.9981766 11.489258,1.9981766 11.484741,1.9981766 C11.484741,1.9981766 11.457031,1.9981766 11.457031,1.9981766 C10.943848,1.9981766 9.936157,2.0800552 8.970093,2.6221466 C7.9993896,3.1642418 6.81604,4.3260574 6.7005615,6.7730293 C6.668213,7.0965004 6.3724365,10.486237 8.151978,12.463638 C8.956299,13.360889 10.051758,13.830463 11.406128,13.853218 ZM7.9348145,6.8865967 C7.9348145,6.8731956 7.939331,6.859585 7.939331,6.8502274 C8.091919,3.5834122 10.444702,3.2327232 11.4522705,3.2327232 C11.4522705,3.2327232 11.470825,3.2327232 11.470825,3.2327232 C11.480103,3.2327232 11.494019,3.2327232 11.5078125,3.2327232 C12.755859,3.2601547 14.877563,3.7614174 15.020874,6.8502274 C15.020874,6.863838 15.020874,6.8776627 15.025513,6.8865967 C15.030029,6.918709 15.353638,10.016876 13.883789,11.647835 C13.301392,12.295204 12.52478,12.613995 11.503296,12.622711 C11.494019,12.622711 11.489258,12.622711 11.480103,12.622711 C11.480103,12.622711 11.480103,12.622711 11.480103,12.622711 C11.470825,12.622711 11.466309,12.622711 11.457031,12.622711 C10.440063,12.613995 9.658936,12.295204 9.081055,11.647835 C7.6158447,10.02602 7.9300537,6.914028 7.9348145,6.8865967 ZM20.979126,19.47556 C20.979126,19.470879 20.979126,19.466415 20.979126,19.461735 C20.979126,19.425156 20.974487,19.389 20.974487,19.347958 C20.946777,18.445812 20.886597,16.336132 18.880615,15.661972 C18.8667,15.657505 18.848145,15.652824 18.83435,15.648148 C16.749512,15.124344 15.016235,13.939774 14.997681,13.925949 C14.715698,13.730293 14.327515,13.798347 14.128784,14.076309 C13.929932,14.354267 13.999268,14.737072 14.28125,14.933151 C14.359863,14.987595 16.199585,16.24979 18.501587,16.833141 C19.578491,17.211056 19.69873,18.345646 19.73108,19.384323 C19.73108,19.425156 19.73108,19.461735 19.735718,19.498314 C19.740234,19.908554 19.712524,20.541882 19.638672,20.906399 C18.889893,21.325356 15.95459,22.774273 11.489258,22.774273 C7.0426025,22.774273 4.088867,21.320892 3.3354492,20.901718 C3.2614746,20.537205 3.229126,19.903873 3.2382812,19.493847 C3.2382812,19.457481 3.243042,19.421116 3.243042,19.38007 C3.2752686,18.340965 3.3955078,17.206589 4.472534,16.82846 C6.774414,16.245323 8.614136,14.978664 8.692871,14.928474 C8.9748535,14.732819 9.044067,14.3495865 8.845337,14.072056 C8.646606,13.793884 8.258301,13.725616 7.9763184,13.921486 C7.9578857,13.935097 6.2336426,15.119877 4.1397705,15.643894 C4.121216,15.648148 4.107422,15.652824 4.093506,15.657505 C2.0874023,16.336132 2.0273438,18.445812 1.9996338,19.34349 C1.9996338,19.384323 1.9996338,19.421116 1.994873,19.457481 C1.994873,19.461735 1.994873,19.466415 1.994873,19.470879 C1.9903564,19.70758 1.9855957,20.924477 2.230713,21.534622 C2.2768555,21.653503 2.3601074,21.753674 2.4709473,21.821728 C2.6097412,21.913174 5.9332275,23.999886 11.494019,23.999886 C17.054688,23.999886 20.378296,21.908497 20.516846,21.821728 C20.623169,21.753674 20.71106,21.653503 20.757324,21.534622 C20.988281,20.929153 20.983765,19.712257 20.979126,19.47556 Z"/>
</svg>