<svg xmlns="http://www.w3.org/2000/svg"
 xmlns:xlink="http://www.w3.org/1999/xlink"
 width="63px" height="56px"  viewBox="0 0 63 56" fill="none">
<path fill-rule="evenodd"  fill="#fb3640"
 d="M61.520935,2.1726074 C61.222107,1.9775391 60.84503,1.9470215 60.51819,2.090332 C60.51819,2.090332 46.181274,8.379639 46.181274,8.379639 C46.181274,8.379639 16.932495,2.0253906 16.932495,2.0253906 C16.7146,1.9782715 16.486938,2.0004883 16.282654,2.090332 C16.282654,2.090332 1.6313477,8.517578 1.6313477,8.517578 C1.2476807,8.686035 1.0,9.064697 1.0,9.48291 C1.0,9.48291 1.0,52.944824 1.0,52.944824 C1.0,53.300537 1.1801147,53.633057 1.4789429,53.827393 C1.6533203,53.941162 1.8544312,53.999023 2.0565186,53.999023 C2.2008057,53.999023 2.345581,53.96924 2.4816895,53.910156 C2.4816895,53.910156 16.818726,47.62036 16.818726,47.62036 C16.818726,47.62036 46.067383,53.975098 46.067383,53.975098 C46.285156,54.022217 46.51306,53.99951 46.717224,53.910156 C46.717224,53.910156 61.36853,47.48242 61.36853,47.48242 C61.752197,47.313965 62.0,46.935303 62.0,46.51709 C62.0,46.51709 62.0,3.05542 62.0,3.05542 C62.0,2.699463 61.819763,2.3669434 61.520935,2.1726074 ZM41.999146,38.65796 C41.999146,38.65796 35.575317,29.837402 35.575317,29.837402 C33.26465,26.664307 33.604797,22.348389 36.383972,19.575195 C37.93213,18.03003 39.965515,17.258057 41.999146,17.258057 C44.032776,17.258057 46.066162,18.030273 47.614197,19.575195 C50.393494,22.348389 50.73352,26.664307 48.42285,29.837402 C48.42285,29.837402 41.999146,38.65796 41.999146,38.65796 ZM18.823364,45.897705 C18.823364,45.897705 21.231873,43.49536 21.231873,43.49536 C21.231873,43.49536 33.78766,30.964111 33.78766,30.964111 C33.814087,31.001709 33.83905,31.04004 33.86615,31.076904 C33.86615,31.076904 38.656555,37.654785 38.656555,37.654785 C38.656555,37.654785 28.327454,47.962646 28.327454,47.962646 C28.327454,47.962646 18.823364,45.897705 18.823364,45.897705 ZM52.02234,24.391846 C51.834778,22.011963 50.799866,19.772217 49.108337,18.083984 C48.81549,17.791504 48.507263,17.523926 48.189026,17.275146 C48.189026,17.275146 59.88684,5.6015625 59.88684,5.6015625 C59.88684,5.6015625 59.88684,39.47705 59.88684,39.47705 C59.88684,39.47705 50.660706,30.27002 50.660706,30.27002 C51.703186,28.503418 52.184387,26.450195 52.02234,24.391846 ZM46.717224,10.447998 C46.717224,10.447998 56.218628,6.279785 56.218628,6.279785 C56.218628,6.279785 46.345398,16.132812 46.345398,16.132812 C43.348633,14.702393 39.78424,14.834473 36.894287,16.533447 C36.894287,16.533447 31.20691,10.858154 31.20691,10.858154 C31.20691,10.858154 34.14746,7.92334 34.14746,7.92334 C34.14746,7.92334 46.06726,10.513428 46.06726,10.513428 C46.285156,10.560547 46.512817,10.537842 46.717224,10.447998 ZM16.818726,4.1586914 C16.818726,4.1586914 31.693481,7.390381 31.693481,7.390381 C31.693481,7.390381 26.765259,12.308594 26.765259,12.308594 C26.35254,12.720215 26.35254,13.387695 26.765259,13.799561 C26.971436,14.005371 27.241882,14.108154 27.51233,14.108154 C27.782593,14.108154 28.05304,14.005371 28.2594,13.799561 C28.2594,13.799561 29.712769,12.349121 29.712769,12.349121 C29.712769,12.349121 35.181885,17.806885 35.181885,17.806885 C35.08362,17.89746 34.985413,17.988525 34.88983,18.083984 C33.198425,19.772217 32.163513,22.011963 31.975952,24.391846 C31.850159,25.989502 32.112915,27.583496 32.72339,29.043457 C32.72339,29.043457 20.703613,41.03955 20.703613,41.03955 C20.703613,41.03955 10.833557,31.189941 10.833557,31.189941 C10.833557,31.189941 23.422424,18.626465 23.422424,18.626465 C23.835083,18.2146 23.835083,17.546875 23.422424,17.135254 C23.009827,16.723389 22.34082,16.723389 21.928284,17.135254 C21.928284,17.135254 15.951904,23.099854 15.951904,23.099854 C15.951904,23.099854 3.1131592,10.2873535 3.1131592,10.2873535 C3.1131592,10.2873535 3.1131592,10.170898 3.1131592,10.170898 C3.1131592,10.170898 16.818726,4.1586914 16.818726,4.1586914 ZM3.1131592,35.91284 C3.1131592,35.91284 3.1131592,26.156738 3.1131592,26.156738 C3.1131592,26.156738 9.570129,19.71289 9.570129,19.71289 C9.570129,19.71289 14.458008,24.591064 14.458008,24.591064 C14.458008,24.591064 3.1131592,35.91284 3.1131592,35.91284 ZM3.1131592,23.174316 C3.1131592,23.174316 3.1131592,13.269531 3.1131592,13.269531 C3.1131592,13.269531 8.075989,18.22168 8.075989,18.22168 C8.075989,18.22168 3.1131592,23.174316 3.1131592,23.174316 ZM3.1131592,38.895264 C3.1131592,38.895264 9.339661,32.681152 9.339661,32.681152 C9.339661,32.681152 11.349915,34.687744 11.349915,34.687744 C11.349915,34.687744 3.1131592,42.907227 3.1131592,42.907227 C3.1131592,42.907227 3.1131592,38.895264 3.1131592,38.895264 ZM3.1131592,45.889893 C3.1131592,45.889893 12.844055,36.178955 12.844055,36.178955 C12.844055,36.178955 19.209473,42.53076 19.209473,42.53076 C19.209473,42.53076 16.101074,45.63159 16.101074,45.63159 C16.101074,45.63159 3.1131592,51.3291 3.1131592,51.3291 C3.1131592,51.3291 3.1131592,45.889893 3.1131592,45.889893 ZM46.181274,51.84131 C46.181274,51.84131 30.781616,48.49536 30.781616,48.49536 C30.781616,48.49536 39.914124,39.38208 39.914124,39.38208 C39.914124,39.38208 41.14441,41.07129 41.14441,41.07129 C41.34314,41.344482 41.66095,41.50586 41.999146,41.50586 C42.33722,41.50586 42.65503,41.344482 42.85376,41.07129 C42.85376,41.07129 43.828735,39.73291 43.828735,39.73291 C43.828735,39.73291 52.974976,48.86133 52.974976,48.86133 C52.974976,48.86133 46.181274,51.84131 46.181274,51.84131 ZM55.05066,47.950684 C55.05066,47.950684 45.08667,38.005615 45.08667,38.005615 C45.08667,38.005615 49.437378,32.03125 49.437378,32.03125 C49.437378,32.03125 59.88684,42.45923 59.88684,42.45923 C59.88684,42.45923 59.88684,45.828857 59.88684,45.828857 C59.88684,45.828857 55.05066,47.950684 55.05066,47.950684 ZM41.999146,20.249023 C39.275208,20.249023 37.059082,22.460205 37.059082,25.17871 C37.059082,27.897217 39.275085,30.108398 41.999146,30.108398 C44.723206,30.108398 46.939087,27.897217 46.939087,25.17871 C46.939087,22.460205 44.723206,20.249023 41.999146,20.249023 ZM41.999146,27.999756 C40.44043,27.999756 39.17224,26.734375 39.17224,25.17871 C39.17224,23.623047 40.44037,22.357422 41.999146,22.357422 C43.557922,22.357422 44.825928,23.623047 44.825928,25.17871 C44.825928,26.734375 43.557922,27.999756 41.999146,27.999756 ZM24.048157,15.94043 C24.288147,16.552002 25.071167,16.770996 25.610535,16.414062 C26.161804,16.050049 26.225647,15.258301 25.77118,14.791992 C25.399963,14.431641 24.814026,14.38208 24.39447,14.690674 C24.011353,14.973145 23.862183,15.500977 24.048157,15.94043 C24.073608,16.005371 24.021484,15.877197 24.048157,15.94043 Z"/>
</svg>
