<svg xmlns="http://www.w3.org/2000/svg"
 xmlns:xlink="http://www.w3.org/1999/xlink"
 width="21px" height="21px"  viewBox="0 0 21 21">
<path fill-rule="evenodd"  fill="#28b8dc"
 d="M6.9090576,10.590942 C6.9090576,10.364624 6.726074,10.182007 6.499817,10.182007 C6.2736816,10.182007 6.0908203,10.364624 6.0908203,10.590942 C6.0908203,11.665283 7.275757,13.140137 7.4107666,13.30481 C7.4919434,13.403442 7.609314,13.454346 7.727539,13.454346 C7.8186646,13.454346 7.9105225,13.423706 7.9868774,13.362061 C8.161377,13.218506 8.186584,12.960449 8.043518,12.785889 C7.6049805,12.250977 6.9090576,11.182617 6.9090576,10.590942 ZM15.499939,10.182007 C15.273804,10.182007 15.09082,10.364624 15.09082,10.590942 C15.09082,11.180908 14.394897,12.2508545 13.956238,12.786255 C13.813171,12.960449 13.838806,13.218628 14.013306,13.362061 C14.089355,13.423706 14.181213,13.454346 14.272644,13.454346 C14.390869,13.454346 14.507935,13.403442 14.589111,13.30481 C14.724121,13.140137 15.909058,11.665283 15.909058,10.590942 C15.909058,10.364624 15.726074,10.182007 15.499939,10.182007 ZM11.0,10.182007 C10.773865,10.182007 10.590881,10.364624 10.590881,10.590942 C10.590881,10.590942 10.590881,13.045288 10.590881,13.045288 C10.590881,13.271606 10.773865,13.454346 11.0,13.454346 C11.226013,13.454346 11.408997,13.271606 11.408997,13.045288 C11.408997,13.045288 11.408997,10.590942 11.408997,10.590942 C11.408997,10.364624 11.226013,10.182007 11.0,10.182007 ZM15.499939,3.6364746 C15.252075,3.6364746 14.99292,3.6687012 14.723877,3.7189941 C13.822876,2.668579 12.489075,1.9997559 11.0,1.9997559 C9.510742,1.9997559 8.17688,2.668579 7.276001,3.7189941 C7.006836,3.6687012 6.7478027,3.6364746 6.499939,3.6364746 C4.0186157,3.6364746 1.9998779,5.654907 1.9998779,8.136353 C1.9998779,9.836426 2.9588013,11.382324 4.4640503,12.146362 C4.4640503,12.146362 4.4561768,18.328735 4.4561768,18.328735 C4.4556885,18.775269 4.6290894,19.194458 4.944336,19.510254 C5.2598877,19.825928 5.678955,19.999878 6.125122,19.999878 C6.125122,19.999878 15.876343,19.999878 15.876343,19.999878 C16.796753,19.999878 17.54535,19.25122 17.54535,18.331055 C17.54535,18.331055 17.54535,12.140625 17.54535,12.140625 C19.045044,11.3741455 20.0,9.831299 20.0,8.136353 C20.0,5.654907 17.981201,3.6364746 15.499939,3.6364746 ZM16.727295,18.331055 C16.727295,18.799805 16.345276,19.181763 15.876343,19.181763 C15.876343,19.181763 6.125122,19.181763 6.125122,19.181763 C5.897888,19.181763 5.684082,19.093262 5.5231934,18.932007 C5.362549,18.77124 5.2738037,18.557129 5.27417,18.32959 C5.27417,18.32959 5.276367,16.72705 5.276367,16.72705 C5.276367,16.72705 16.727295,16.72705 16.727295,16.72705 C16.727295,16.72705 16.727295,18.331055 16.727295,18.331055 ZM16.98059,11.503662 C16.958923,11.512695 16.938538,11.522827 16.919312,11.5354 C16.867737,11.566895 16.8255,11.609375 16.793884,11.658325 C16.761963,11.706787 16.740356,11.762695 16.731567,11.822754 C16.727966,11.845459 16.726868,11.868042 16.727173,11.890991 C16.727173,11.890991 16.727173,15.908936 16.727173,15.908936 C16.727173,15.908936 5.2773438,15.908936 5.2773438,15.908936 C5.2773438,15.908936 5.282654,11.8967285 5.282654,11.8967285 C5.282959,11.87439 5.2818604,11.851685 5.2786255,11.829956 C5.2699585,11.767822 5.2471924,11.709961 5.2139893,11.660278 C5.1827393,11.613281 5.141968,11.572632 5.092407,11.541382 C5.0722046,11.528809 5.050415,11.517578 5.028137,11.508423 C3.6854858,10.921631 2.8181763,9.598389 2.8181763,8.136353 C2.8181763,6.106201 4.4696655,4.45459 6.499817,4.45459 C6.5792236,4.45459 6.663025,4.4641113 6.745178,4.470337 C6.331238,5.1898193 6.0908203,6.020874 6.0908203,6.9091797 C6.0908203,7.13501 6.2736816,7.318115 6.499817,7.318115 C6.726074,7.318115 6.9090576,7.13501 6.9090576,6.9091797 C6.9090576,4.6535645 8.744385,2.8181152 11.0,2.8181152 C13.255493,2.8181152 15.09082,4.6535645 15.09082,6.9091797 C15.09082,7.13501 15.273804,7.318115 15.499939,7.318115 C15.726074,7.318115 15.909058,7.13501 15.909058,6.9091797 C15.909058,6.020874 15.668579,5.1898193 15.254578,4.470337 C15.336853,4.4641113 15.420593,4.45459 15.499939,4.45459 C17.530212,4.45459 19.181702,6.106201 19.181702,8.136353 C19.181702,9.593506 18.318054,10.914551 16.98059,11.503662 Z"/>
</svg>